<?xml version="1.0" encoding="UTF-8" standalone="no"?>
<!-- Generator: Adobe Illustrator 26.3.1, SVG Export Plug-In . SVG Version: 6.00 Build 0)  -->

<svg
   version="1.1"
   id="Layer_1"
   x="0px"
   y="0px"
   viewBox="0 0 1280 224.1"
   style="enable-background:new 0 0 1280 224.1;"
   xml:space="preserve"
   sodipodi:docname="noderunner.svg"
   inkscape:version="1.1.2 (0a00cf5339, 2022-02-04)"
   xmlns:inkscape="http://www.inkscape.org/namespaces/inkscape"
   xmlns:sodipodi="http://sodipodi.sourceforge.net/DTD/sodipodi-0.dtd"
   xmlns="http://www.w3.org/2000/svg"
   xmlns:svg="http://www.w3.org/2000/svg"><defs
   id="defs7" /><sodipodi:namedview
   id="namedview5"
   pagecolor="#ffffff"
   bordercolor="#666666"
   borderopacity="1.0"
   inkscape:pageshadow="2"
   inkscape:pageopacity="0.0"
   inkscape:pagecheckerboard="0"
   showgrid="false"
   inkscape:zoom="0.93359375"
   inkscape:cx="640"
   inkscape:cy="112.46862"
   inkscape:window-width="1920"
   inkscape:window-height="1015"
   inkscape:window-x="1920"
   inkscape:window-y="0"
   inkscape:window-maximized="1"
   inkscape:current-layer="Layer_1" />
<path
   d="M65.6,201.6H35.9l4.7-14.7h29.7L65.6,201.6z M88.9,129.8l-17.1,52.6H42.2L89.4,37.1h24.3l3.3,79.4l25.9-79.4h29.7  l-47.2,145.3H93.1L88.9,129.8z M94.8,201.6l-1.4-14.7h30.4l-4.7,14.7H94.8z M152.9,201.6c-12,0-17.5-4.9-16.6-14.7H219  c-5.1,9.8-13.7,14.7-25.7,14.7H152.9z M137.5,182.4l40.4-124.3c2.2-7,5.7-12.3,10.6-15.8c4.9-3.5,10.9-5.3,17.9-5.3h40.4  c14.3,0,19.3,7,15,21l-40.4,124.3H137.5z M204.8,67.5l-33.9,103.7H195l33.9-103.7H204.8z M289.3,201.6h-62.1l4.7-14.7H315  C309.9,196.6,301.3,201.6,289.3,201.6z M233.5,182.4l47.2-145.3h62.1c14.3,0,19.3,7,15,21l-40.4,124.3H233.5z M300.8,67.5  l-33.9,103.7H291l33.9-103.7H300.8z M394.5,201.6h-71.2l4.7-14.7h71.2L394.5,201.6z M376.7,37.1h71.2l-9.8,30.4h-41.3L385.1,103  h34.3l-9.8,30.4h-34.3l-12.4,37.8h41.3l-3.5,11.2h-71.2L376.7,37.1z M674.8,201.6h-29.9l4.7-14.7h29.9L674.8,201.6z M760.5,37.1  c14.3,0,19.3,7,15,21l-19.2,58.6c-1.9,5.6-4.9,9.6-9.1,12c-4.2,2.4-9,3.8-14.2,4.1l0.5,49.5h-30.6l-0.2-45.6l11-33.9h17.3l11.7-35.5  h-24.1l-37.4,114.9h-29.9l47.2-145.3H760.5z M733.4,186.8l0.2,14.7h-30.8l-0.2-14.7H733.4z M762.6,201.6c-12,0-17.5-4.9-16.6-14.7  h82.7c-5.1,9.8-13.7,14.7-25.7,14.7H762.6z M747.2,182.4l47.2-145.3h29.9l-43.7,134.1h24.1l43.7-134.1h29.9L831,182.4H747.2z   M866.5,201.6h-29.7l4.7-14.7h29.7L866.5,201.6z M889.9,129.8l-17.1,52.6h-29.7l47.2-145.3h24.3l3.3,79.4l25.9-79.4h29.7  l-47.2,145.3h-32.2L889.9,129.8z M895.7,201.6l-1.4-14.7h30.4l-4.7,14.7H895.7z M961.8,201.6h-29.7l4.7-14.7h29.7L961.8,201.6z   M985.2,129.8l-17.1,52.6h-29.7l47.2-145.3h24.3l3.3,79.4l25.9-79.4h29.7l-47.2,145.3h-32.2L985.2,129.8z M991,201.6l-1.4-14.7h30.4  l-4.7,14.7H991z M1098.7,201.6h-71.2l4.7-14.7h71.2L1098.7,201.6z M1081,37.1h71.2l-9.8,30.4h-41.3l-11.7,35.5h34.3l-9.8,30.4h-34.3  l-12.4,37.8h41.3l-3.5,11.2h-71.2L1081,37.1z M1140.8,201.6h-29.9l4.7-14.7h29.9L1140.8,201.6z M1226.5,37.1c14.3,0,19.3,7,15,21  l-19.2,58.6c-1.9,5.6-4.9,9.6-9.1,12c-4.2,2.4-9,3.8-14.2,4.1l0.5,49.5h-30.6l-0.2-45.6l11-33.9h17.3l11.7-35.5h-24.1l-37.4,114.9  h-29.9l47.2-145.3H1226.5z M1199.4,186.8l0.2,14.7h-30.8l-0.2-14.7H1199.4z M577.7,132.4c-2.8,2.6-5.2,4.9-7.8,7.3  c1.8,1.8,3.4,3.5,5,5.1c3.9,3.8,7.8,7.5,11.8,11.3c1.6,1.5,1.9,3.2,0.8,4.6c-1.1,1.3-3,1.4-4.6-0.1c-4.2-4-8.3-8-12.5-12.1  c-0.4-0.4-0.9-0.8-0.9-0.9c-3.5,3.2-6.8,6.3-10.3,9.4c1.9,1.8,3.5,3.4,5.2,4.9c0.3,0.2,0.9,0.4,1.2,0.3c9.4-2.8,12.9-2.1,20.3,3.9  c1.4-1.4,2.8-2.9,4.2-4.3c1.5-1.5,2.4-1.5,3.9,0c3.7,3.8,7.5,7.7,11.2,11.6c0.9,0.9,1.5,1,2.6,0.5c4.9-2.4,9.7-4.7,14.7-6.9  c2.5-1.1,5.1-1.9,7.8-2.5c1.3-0.3,2.8,0.1,4.1,0.5c1.3,0.3,2.5,1,3.7,1.5c1.4,0.5,1.9,2.2,0.9,3.4c-0.6,0.9-1.4,1.6-2.2,2.4  c-11.3,11.6-22.6,23.3-33.9,34.9c-0.3,0.3-0.6,0.6-0.9,0.9c-0.9,0.9-1.9,1.5-3.1,0.5c-1.2-1-1-2.2-0.1-3.3c0.1-0.2,0.3-0.4,0.3-0.4  c-1.7-1-3.6-1.6-5-2.9c-1.3-1.2-2.5-2.9-3-4.5c-0.9-3.1-2.5-5.7-4.7-7.8c-1.4-1.4-2.8-2.7-4.3-4c-3.9,3.6-8,2.5-10.4-1  c-0.4,0.2-0.8,0.5-1.2,0.7c-2.5,1.6-5.9,1.3-7.7-1.1c-1.1-1.5-2.3-1.5-3.8-1.5c-3.3,0-5.5-1.8-6.2-4.9c-0.4-1.9,0.2-3.6,1.4-5  c2-2.3,4-4.6,6.2-7c-5.9-5.8-12-11.7-18.1-17.8c-0.3,0.2-0.7,0.7-1.2,1.1c-5.6,5.8-11.3,11.7-16.9,17.5c-6,6.3-13.6,6.5-20,0.3  c-5.1-5-10.2-10.1-15.2-15.1c-1.6-1.6-1.7-3-0.4-4.4c1.3-1.4,3-1.3,4.5,0.2c5.5,5.5,11.1,11,16.6,16.6c2.3,2.4,6.4,2.6,8.9,0.1  c4.4-4.4,8.7-9,12.5-12.9c-3.2-3.6-6.3-7.1-9.5-10.6c-1.7,1.8-3.3,3.5-4.8,5.1c-2,2.1-3.4,2.3-5.3,0.1c-2.2-2.6-4.2-3.2-7.8-2.1  c-6.2,1.9-11.8-0.2-16.6-4.9c-1.3,1.4-2.6,2.8-3.9,4.1c-1.9,1.9-2.6,2-4.4,0.1c-3.7-3.7-7.5-7.4-11.1-11.2c-0.9-0.9-1.4-1.1-2.5-0.5  c-4.7,2.4-9.3,4.7-14.1,6.9c-2.6,1.2-5.4,2.1-8.2,2.8c-1.3,0.3-2.8-0.1-4.1-0.4c-1.3-0.3-2.6-1-3.9-1.5c-1.4-0.6-1.8-2.4-0.5-3.7  c2.9-3.1,5.8-6.2,8.7-9.2c9.2-9.7,18.4-19.4,27.6-29.1c0.9-0.9,1.8-1.5,2.9-0.5c1.1,0.9,1.1,2,0.3,3.2c-0.2,0.2-0.3,0.5-0.6,0.8  c0.9,0.3,1.7,0.6,2.5,0.9c2.7,1.1,4.9,3,5.7,5.8c1,3.9,3.4,6.8,6.2,9.4c1,0.9,1.8,2,2.6,3c5.2-3.5,7.2-3.3,10.9,0.6  c4.1-2.7,6.3-2.4,9.6,1.1c0.4,0.4,1.3,0.6,1.9,0.6c2.9-0.2,5.4,0.6,6.7,3.3c1.4,2.7,0.7,5.1-1.3,7.3c-1.9,2.1-3.8,4.3-5.7,6.5  c0.4,0.4,0.8,0.8,1.4,1.3c13.3-13.8,26.6-27.6,39.4-41c-4.2-4.5-8.3-8.9-12.3-13.3c-5.3,5.5-10.4,10.9-15.6,16.1  c-5,5-12.6,5.1-17.5,0.3c-5-4.9-5.3-12.4-0.5-17.8c1.4-1.6,2.9-3.1,4.5-4.6c1.3-1.3,2.8-1.3,4-0.3c1.1,1,1,2.7-0.1,4  c-1.5,1.6-3.1,3.2-4.5,4.9c-1.8,2.2-2.3,4.7-1.2,7.4c1.1,2.5,3,4,5.7,4.2c2.6,0.2,4.6-0.9,6.3-2.7c4.9-5.1,9.8-10.1,14.6-15.2  c0.6-0.6,1.2-1.3,1.9-1.9c1.9-1.8,3.1-1.8,4.9,0c1.7,1.7,3.5,3.4,5.3,5.3c3.2-3.4,6.4-6.8,9.7-10.2c-0.2-0.3-0.3-0.5-0.5-0.7  c-4.1-4-8.1-8.1-12.3-12c-3.1-3-6.9-2.9-10,0.2c-3.3,3.3-6.5,6.7-9.7,10c-1,1-1.9,2-2.9,2.9c-1.2,1.1-2.8,1-3.7,0  c-1-1.2-1.3-2.6-0.1-3.7c4.5-4.7,8.9-9.7,13.8-14.1c4.9-4.4,11.5-3.9,16.5,0.7c5.4,5,10.5,10.2,15.8,15.3c0.4,0.4,0.9,0.8,1.6,1.5  c0-2.4-0.1-4.4,0-6.5c0.2-2.7-0.5-4.5-3.1-5.8c-2.7-1.3-3.2-4.1-3.1-6.9c0-0.7,0.1-1.4,0.2-2.3c-0.8-0.3-1.5-0.6-2.3-0.8  c-9-3.1-15-11-15.5-20.6c-0.1-2.3,0.8-3.3,3.5-3.4c1.1,0,1.9-0.3,2.3-1.4c0.2-0.5,0.6-0.9,1-1.2c4.4-3.2,9-6.1,14.4-7.3  c6.8-1.5,14.2,2,17.6,8.1c0.5,0.9,1,1.3,2.1,1.3c3.2,0,6.5-0.2,9.6,0.4c9.1,1.8,14.7,7.6,17.2,16.5c0.5,1.7,1.1,2.8,2.8,3.6  c2.7,1.2,4,3.5,4.1,6.4c0.2,3.2-0.8,5.9-3.7,7.4c-1.8,0.9-2.2,2.1-2.1,4c0.1,5.8,0.5,11.7-0.3,17.4c-1.4,11.1-10.6,18.8-21.7,19  c-0.9,0-1.7,0.3-2.6,0.5c0.3,1.1,0.4,2.5,1.1,3.3c2.5,3,5.3,5.8,7.6,8.3c2.5-2.2,4.5-3.9,6.4-5.8c3.5-3.5,6.8-7.1,10.2-10.5  c4.9-5,12.6-5,17.7-0.2c4.8,4.6,5.1,12.7,0.4,17.7c-8.2,8.7-16.5,17.3-24.8,25.8c-4.8,4.9-12.2,5-17.3,0.2c-3.3-3.1-6.4-6.3-9.6-9.4  C578.3,133.3,578,132.8,577.7,132.4z M572.3,65.4c0,1-0.1,1.6-0.1,2.1c0.1,5,0.2,9.9,0.3,14.9c0.2,8.3,7.2,15.5,15.3,16  c9.3,0.5,17.2-5.3,18.2-14c0.5-4.5,0.2-9.2,0.3-13.8c0-1.8,0-3.7,0-5.2C594.7,65.4,583.6,65.4,572.3,65.4z M545.9,115.9  c6.7,6.6,13.3,13,19.4,19c3.2-3,6.5-5.7,9.5-8.7c5.8-5.9,8-13,6.8-21.2c-0.3-1.7-1-2.8-2.5-3.6c-5.5-2.9-9.5-7.2-10.9-13.4  c-0.8-3.3-2.6-5.5-4.6-7.2c-3.5,3.2-6.9,6.3-10,9.1c2.9,3.2,5.5,6.1,8.3,9c2,2.1,4.1,4,6.1,6.1c1.2,1.3,1.2,2.9,0.1,4  c-1,1-2.5,1-3.8-0.1c-0.5-0.4-0.9-0.8-1.3-1.2c-1.5-1.5-2.9-3.1-4.4-4.6C554.1,107.3,550.1,111.5,545.9,115.9z M581.2,128.1  c3.2,3.3,6.9,6.8,10.4,10.6c3.4,3.8,8,3,11-0.3c5.3-5.6,10.7-11.1,16-16.6c2.5-2.6,4.9-5.2,7.4-7.8c3.9-4.2,2.8-10-2.1-12  c-2.9-1.1-5.5-0.4-7.7,1.7c-2.6,2.7-5.2,5.4-7.8,8.1c-3.1,3.3-6.3,6.5-9.5,9.7c-1.6,1.6-2.6,1.5-4.3,0.1c-0.4-0.3-0.8-0.7-1.2-1.1  c-2.1-2.1-4.2-4.1-6-5.9C585.3,119.2,583.3,123.6,581.2,128.1z M542.1,120.7c-0.2,0.2-0.4,0.4-0.5,0.6c-3.8,5.9-3.4,13.8,1.2,19  c2.9,3.3,6.1,6.4,9.1,9.6c1,1,2,2,3,2.9c-0.2-0.3-0.3-0.5-0.5-0.8c3.4-3,6.9-6,10.4-9.1C557,135.3,549.6,128,542.1,120.7z   M591,177.9c-3.1-3.3-5.9-6.3-8.8-9.3c-5.1-5.2-13.4-5.1-18.6,0c-1.3,1.3-2.5,2.6-3.7,3.9c-0.6,0.6-1.3,1.3-1.9,1.9  c-1,1-1.6,2.1-0.5,3.4c0.9,1,2,0.7,3.3-0.7c0.5-0.5,0.9-0.9,1.4-1.4c0.9-0.9,1.8-1.7,3.1-0.8c1.3,0.9,1.1,2.1,0.4,3.3  c-0.3,0.5-0.6,1.2-0.5,1.6c0.2,0.6,0.7,1.4,1.2,1.6c0.6,0.2,1.6-0.1,2.1-0.5c1.4-1.3,2.6-2.9,4-4c0.7-0.5,1.9-0.4,2.9-0.6  c0.1,1,0.4,1.5,0.4,2.5c0,0.4-0.4,1.2-0.4,1.6c-0.1,0.8,0,1.8,0.5,2.2c0.4,0.4,1.6,0.3,2.2-0.1c0.8-0.4,1.4-1.3,2-2  c1.3-1.4,2.8-2.3,4.8-2.4C586.9,178.4,588.7,178.1,591,177.9z M584.5,42.3c-1.9-3.8-3.7-7.3-5.4-10.8c-0.4-0.7-0.8-1.5-1.3-2.2  c-3.3-4.5-9.5-6.8-14.5-4.8c-3.5,1.4-6.7,3.5-10,5.4c-1,0.5-1.3,1.6-0.7,2.6c0.6,1.1,1.6,1.3,2.7,0.7c1.1-0.6,2-1.4,3.1-1.6  c0.7-0.2,2,0.2,2.4,0.7c0.4,0.6,0,1.7-0.2,2.6c0,0.2-0.4,0.4-0.6,0.6c-0.8,0.9-1.4,2-0.4,2.8c0.6,0.5,1.9,0.6,2.7,0.3  c1.4-0.5,2.7-1.4,4.1-2.2c1.2-0.7,2.5-1.4,3.5-0.1c1.1,1.4,0.2,2.6-0.9,3.5c-0.1,0.1-0.2,0.2-0.2,0.3c-0.1,0.8-0.5,1.9-0.1,2.4  c0.3,0.5,1.5,0.7,2.3,0.6c0.8-0.1,1.5-0.7,2.2-1.1c1.8-1.2,3.7-1.6,5.9-1C580.7,41.6,582.4,41.9,584.5,42.3z M482.1,127.2  c-0.2,0.3-0.4,0.6-0.6,0.8c2,1.8,4,3.5,6,5.3c1.4,1.3,2.7,2.9,4.2,4.1c4.7,3.8,12.1,3.6,16.4-0.4c2.4-2.2,4.5-4.7,6.8-7.1  c0.9-0.9,1.1-2.1,0.1-3c-1-1-2.1-0.6-3,0.3c-0.8,0.8-1.5,1.8-2.4,2.4c-0.6,0.4-1.9,0.5-2.4,0.1c-0.6-0.5-0.9-1.6-0.8-2.4  c0.1-0.4,0.5-0.7,0.5-1.1c0.1-0.9,0-2.1-0.6-2.6c-0.4-0.4-1.8-0.1-2.4,0.4c-1.2,0.9-2.2,2.2-3.2,3.3c-1,1-1.9,2.3-3.5,1.3  c-1.5-1-1-2.4-0.2-3.6c0.1-0.2,0.2-0.3,0.2-0.5c-0.2-0.8-0.2-1.9-0.6-2.2c-0.6-0.4-1.7-0.2-2.4,0.1c-0.7,0.3-1.2,1-1.6,1.6  c-1.4,1.9-3.3,2.8-5.6,2.9C485.4,126.8,483.7,127.1,482.1,127.2z M549,35.5c0.1,0.5,0.1,0.9,0.2,1.2c1.8,6.2,5.7,10.4,11.9,12  c2.4,0.6,5,0.6,7.6,0.6c9.6,0,19.1-0.2,28.7-0.3c2.8,0,5.5,0,8.3,0c-1.1-9.2-11-16.1-19.9-13.9c2,3.8,4,7.6,6.1,11.3  c-2.6,1.7-2.6,1.6-6,0.7c-4.6-1.2-9-2.6-13.7,0.3c-2.6,1.6-6-0.2-7.4-3c-0.2-0.5-0.4-0.9-0.7-1.5c-2.3,0.8-4.6,1.2-6.5-0.6  c-1.2-1.2-1.8-3.1-3.1-4.2c-1.4-1.1-3.2-1.6-4.9-2.3C549.4,35.7,549.3,35.7,549,35.5z M588.7,60.2C588.7,60.1,588.7,60.4,588.7,60.2  c4.9,0,10-0.2,14.9-0.2c2.3,0,4.5,0.1,6.7-0.4c0.7-0.2,1.7-1.7,1.8-2.5c0.1-0.8-0.8-1.9-1.6-2.5c-0.6-0.5-1.6-0.4-2.4-0.4  c-10.9,0.1-21.9,0.3-32.8,0.5c-2.3,0-4.5-0.1-6.7,0.3c-0.9,0.1-1.9,1.2-2.3,2.1c-0.3,0.6,0.3,1.9,0.9,2.5c0.5,0.5,1.5,0.6,2.3,0.6  C575.8,60.3,582.2,60.2,588.7,60.2z M591.4,188c1.2,2.7,2.4,5.1,3.2,7.5c1.9,5.2,7.6,6.5,11.3,2.4c0.5-0.6,0.9-1.7,0.8-2.5  c-0.8-5.3-1.7-10.5-2.8-15.7c-0.2-1.1-0.9-2-1.5-3.2C598.4,180.6,594.8,184.4,591.4,188z M481.4,117c-0.8-1.3-1.7-2.4-2.3-3.6  c-0.6-1.2-1-2.6-1.4-3.8c-1.8-5-7.7-6.1-11.1-2.1c-0.6,0.7-0.9,2-0.8,2.9c0.8,4.9,1.7,9.8,2.7,14.6c0.3,1.3,1,2.6,1.6,4.2  C474.1,124.8,477.7,121,481.4,117z M461.9,112.5c-4,4.1-7.7,8-11.6,12.1c2,2,3.8,3.9,5.8,5.7c0.3,0.3,1.2,0.3,1.7,0.1  c1.9-0.8,3.6-1.7,5.5-2.5c1-0.4,1.3-1.1,1.1-2.1C463.6,121.5,462.8,117.2,461.9,112.5z M610.5,192.6c3.9-3.9,7.7-7.7,12.1-12  c-2-1.7-3.9-3.5-5.9-5.2c-0.4-0.3-1.3-0.4-1.9-0.2c-1.7,0.7-3.3,1.6-5,2.2c-1.4,0.5-1.7,1.4-1.5,2.8  C609,184.3,609.7,188.4,610.5,192.6z M533.6,129.5c-2.6,2.3-5.4,4.8-7.7,6.9c3.2,3.5,6.1,6.8,9.2,10.3c1-1.2,1.8-2.2,2.7-3.3  C534.9,139.3,533.5,134.4,533.6,129.5z M439.3,135.9c0.1,0.3,0.2,0.6,0.3,0.8c4.9,1.2,8.5-2.2,12.9-3.6c-1.9-1.9-3.5-3.5-4.9-4.9  C444.9,130.8,442.1,133.3,439.3,135.9z M625.1,177.3c2.6-2.5,5.3-5.1,8.3-8.1c-5.2-1.5-8.9,2.1-13.3,3.3  C621.9,174.2,623.6,175.9,625.1,177.3z M591.9,166.5c-0.8,0.8-1.8,1.8-2.9,2.8c2.4,2.3,4.8,4.7,7.4,7.1c0.8-0.8,1.8-1.9,3-3.2  C596.7,170.9,594.3,168.7,591.9,166.5z M473.9,131.4c2.4,2.5,4.8,4.9,7.3,7.4c0.7-0.8,1.7-1.8,2.7-2.9c-2.3-2.3-4.5-4.4-6.6-6.6  c-0.2-0.2-0.4-0.4-0.8-0.6C475.6,129.6,474.7,130.6,473.9,131.4z M590.5,182.4c-1.6,0.1-3.1,0.2-4.7,0.3  C587.9,185.7,588.5,185.7,590.5,182.4z M486.8,122.4c-2.2-2.9-2.7-2.9-4.8,0.4C483.6,122.7,485.1,122.6,486.8,122.4z M480.4,44.4  c2.4,0.1,4.4,1,6.2,2.5c2.4,2.1,4.8,4.2,7.1,6.5c3.2,3.2,3.3,8.2,0.5,11.8c-3,3.7-7.7,4.8-11.6,2.3c-3-1.9-5.8-3.9-8.6-6.1  c-3.5-2.8-4.2-7-2.1-10.9C473.9,46.6,477.1,44.3,480.4,44.4z M486.8,63.4c2.3-0.2,3.2-1.8,3.8-3.3c0.3-0.6-0.3-2.1-1-2.8  c-2.1-2.2-4.4-4.3-6.7-6.4c-1.9-1.7-3.5-1.4-5.4,0.9c-2,2.5-1.9,4,0.2,5.6c2.4,1.8,4.9,3.5,7.4,5.2C485.7,63,486.4,63.2,486.8,63.4z   M494.2,34.7c0.3-5,3.3-8.1,9-9.2c4.4-0.8,8.1,1.3,9.7,5.7c1.1,3.1,2.1,6.3,2.9,9.6c1.2,4.7-1.2,9-5.7,10.6c-4.8,1.7-8.7,0.3-11-4.3  c-1.4-2.8-2.7-5.6-3.9-8.4C494.6,37.4,494.5,36,494.2,34.7z M506,46.6c3.2,0.1,5.1-2,4.5-4.3c-0.9-3.2-1.9-6.3-2.9-9.4  c-0.5-1.6-1.9-2.3-3.5-1.9c-1,0.3-1.9,0.6-2.8,1.1c-1.6,0.9-2.1,2.2-1.3,3.9c1.3,3,2.7,6,4.2,8.9C504.5,45.7,505.6,46.2,506,46.6z   M477.5,91.9c-4.1-0.3-7.4-0.4-10.5-0.8c-5.3-0.7-8.9-4.9-7.8-11.1c0.7-3.7,2.3-6.9,6.3-7.9c1.3-0.4,2.9-0.4,4.2-0.2  c3.2,0.6,6.3,1.3,9.4,2.1c4.8,1.2,7.2,5.1,6.5,10.4C484.9,88.9,481.3,92,477.5,91.9z M476.7,86.5c1.8,0.1,3.1-1,3.4-3.1  c0.4-2.2-0.4-3.5-2.7-4.1c-2.8-0.7-5.5-1.3-8.3-1.9c-2.7-0.6-4.1,0.4-4.6,3.5c-0.5,2.9,0.4,4.5,3.2,4.8  C470.7,86,473.6,86.2,476.7,86.5z"
   id="path2" />
</svg>
